<svg width="13" height="16" viewBox="0 0 13 16" fill="none" xmlns="http://www.w3.org/2000/svg">
<path d="M6.23107 7.24563C4.39631 7.24563 2.9044 5.75293 2.9044 3.91896C2.9044 2.08498 4.39631 0.592285 6.23107 0.592285C8.06583 0.592285 9.55774 2.08498 9.55774 3.91896C9.55774 5.75293 8.06583 7.24563 6.23107 7.24563ZM6.23107 1.7664C5.04364 1.7664 4.07852 2.73153 4.07852 3.91896C4.07852 5.10638 5.04364 6.07151 6.23107 6.07151C7.4185 6.07151 8.38362 5.10638 8.38362 3.91896C8.38362 2.73153 7.41771 1.7664 6.23107 1.7664ZM9.35259 15.8558H3.0954C1.20116 15.8558 0.157715 14.8187 0.157715 12.9354C0.157715 10.8526 1.33653 8.41975 4.65851 8.41975H7.78949C11.1115 8.41975 12.2903 10.8518 12.2903 12.9354C12.2903 14.8187 11.2468 15.8558 9.35259 15.8558ZM4.65851 9.59387C1.57214 9.59387 1.33183 12.1511 1.33183 12.9354C1.33183 14.1597 1.85945 14.6817 3.0954 14.6817H9.35259C10.5886 14.6817 11.1162 14.1597 11.1162 12.9354C11.1162 12.1519 10.8759 9.59387 7.78949 9.59387H4.65851Z" fill="black"/>
</svg>
